<?xml version="1.0" encoding="utf-8"?>
<?xml-stylesheet type="text/xsl" href="rss1.xsl"?>
<rss version="2.0" xmlns:atom="http://www.w3.org/2005/Atom" xmlns:content="http://purl.org/rss/1.0/modules/content/" xmlns:dc="http://purl.org/dc/elements/1.1/" xmlns:media="http://search.yahoo.com/mrss/">
<channel>
 <title>Getty</title>
 <link>http://www.gettyimg.com/</link>
 <atom:link href="http://www.gettyimg.com/" rel="self" type="application/rss+xml" />

 
                <item>
                <title><![CDATA[【Albums (lossy)】iTunes Plus - Jesse McCartney - Right Where You Want Me (CD-AVCD Special Edition) [AUDIO ONLY]]]></title>
                <link><![CDATA[https://sharemania.us/threads/jesse-mccartney-right-where-you-want-me-cd-avcd-special-edition-audio-only.224965/]]></link>
                <description><![CDATA[<article>
<blockquote class="messageText SelectQuoteContainer ugc baseHtml">
<img src="https://lh3.googleusercontent.com/-4XahRCAe88I/X4qUV57KXII/AAAAAAAAHe0/9G1QMBxvwN8FSHTdjQmUo--c3gcp2k7QgCLcBGAsYHQ/w640-h640/1602914370111664-0.png" class="bbCodeImage LbImage" alt="[​IMG]" data-url="https://lh3.googleusercontent.com/-4XahRCAe88I/X4qUV57KXII/AAAAAAAAHe0/9G1QMBxvwN8FSHTdjQmUo--c3gcp2k7QgCLcBGAsYHQ/w640-h640/1602914370111664-0.png" style=""><br>
CD 1<br>
1-01 Right Where You Want Me<br>
1-02 Just So You Know<br>
1-03 Blow Your Mind<br>
1-04 Right Back in the Water<br>
1-05 Anybody<br>
1-06 Tell Her<br>
1-07 Just Go<br>
1-08 Can't Let You Go<br>
1-09 We Can Go Anywhere<br>
1-10 Feelin' You<br>
1-11 Invincible<br>
1-12 Daddy's Little Girl<br>
<br>
CD 2<br>
BONUS TRACKS<br>
<br>
- Beautiful Soul (Acoustic Version From Osaka Live Convention In Japan)<br>
- Without U (Acoustic Version From Osaka Live Convention In Japan)<br>
- I'll Try<br>
- Crushin<br>
- One Way Or Another<br>
- When You Wish Upon a Star<br>
- The Second Star to the Right<br>
- Winter Wonderland<br>
- Best Day Of My Life (Karaoke Audio Track)<br>
- Get Your Shine On (Karaoke Audio Track)<br>
- Good Life (Karaoke Audio Track)<br>
- What's Your Name (Karaoke Audio Track)<br>
- That Was Then (Karaoke Audio Track)<br>
<div class="bbCodeBlock bbCodeVfcHH HiddenContent">
<div class="attribution type">Hidden Content:</div>
<blockquote>You must either reply or click 'Like' to see the hidden information contained here.</blockquote>
</div>
<div class="messageTextEndMarker">&nbsp;</div>
</blockquote>
</article>]]></description>
                <author><![CDATA[HeyitsmeDanii]]></author>
                </item>

                
                <item>
                <title><![CDATA[【Apple Music】WEB-RiP - Louis Tomlinson - Back to You (feat. Bebe Rexha &amp; Digital Farm Animals) (1080p)]]></title>
                <link><![CDATA[https://sharemania.us/threads/louis-tomlinson-back-to-you-feat-bebe-rexha-digital-farm-animals-1080p.224966/]]></link>
                <description><![CDATA[<article>
<blockquote class="messageText SelectQuoteContainer ugc baseHtml">
<img src="https://i.imgur.com/qw3WvNA.jpg" class="bbCodeImage LbImage" alt="[​IMG]" data-url="https://i.imgur.com/qw3WvNA.jpg" style=""><br>
<br>
<div class="bbCodeBlock bbCodeCode">
<div class="type">Code:</div>
<pre>General
Complete name                  : C:\Users\asus\Desktop\Louis Tomlinson - Back to You (feat. Bebe Rexha &amp; Digital Farm Animals).mp4
Format                         : MPEG-4
Format profile                 : Base Media
Codec ID                       : isom (isom/iso2/avc1/mp41)
File size                      : 163 MiB
Duration                       : 3 min 18 s
Overall bit rate               : 6 882 kb/s
Frame rate                     : 25.000 FPS
Movie name                     : Back to You (feat. Bebe Rexha &amp; Digital Farm Animals)
Performer                      : Louis Tomlinson
Genre                          : Pop
ContentType                    : Music Video
Recorded date                  : 2017-07-21 07:00:00 UTC
Writing application            : Lavf57.29.101
Copyright                      : ℗ (C) 2017 78 PRODUCTIONS LIMITED under exclusive licence to Simco Limited / Sony Music Entertainment UK Limited

Video
ID                             : 1
Format                         : AVC
Format/Info                    : Advanced Video Codec
Format profile                 : High@L4
Format settings                : CABAC / 5 Ref Frames
Format settings, CABAC         : Yes
Format settings, Reference fra : 5 frames
Codec ID                       : avc1
Codec ID/Info                  : Advanced Video Coding
Duration                       : 3 min 18 s
Bit rate                       : 6 630 kb/s
Width                          : 1 920 pixels
Height                         : 860 pixels
Display aspect ratio           : 2.25:1
Frame rate mode                : Constant
Frame rate                     : 25.000 FPS
Color space                    : YUV
Chroma subsampling             : 4:2:0
Bit depth                      : 8 bits
Scan type                      : Progressive
Bits/(Pixel*Frame)             : 0.161
Stream size                    : 157 MiB (96%)
Color range                    : Limited
Color primaries                : BT.709
Transfer characteristics       : BT.709
Matrix coefficients            : BT.709
Codec configuration box        : avcC

Audio
ID                             : 2
Format                         : AAC LC
Format/Info                    : Advanced Audio Codec Low Complexity
Codec ID                       : mp4a-40-2
Duration                       : 3 min 18 s
Bit rate mode                  : Constant
Bit rate                       : 248 kb/s
Channel(s)                     : 2 channels
Channel layout                 : L R
Sampling rate                  : 48.0 kHz
Frame rate                     : 46.875 FPS (1024 SPF)
Compression mode               : Lossy
Stream size                    : 5.88 MiB (4%)
Default                        : Yes
Alternate group                : 1

</pre>
</div>
<div class="bbCodeBlock bbCodeVfcHH HiddenContent">
<div class="attribution type">Hidden Content:</div>
<blockquote>You must either reply or click 'Like' to see the hidden information contained here.</blockquote>
</div>
<div class="messageTextEndMarker">&nbsp;</div>
</blockquote>
</article>]]></description>
                <author><![CDATA[vitalya3]]></author>
                </item>

                
                <item>
                <title><![CDATA[【Apple Music】WEB-RiP - Bebe Rexha - Meant to Be (feat. Florida Georgia Line) (1080p)]]></title>
                <link><![CDATA[https://sharemania.us/threads/bebe-rexha-meant-to-be-feat-florida-georgia-line-1080p.224967/]]></link>
                <description><![CDATA[<article>
<blockquote class="messageText SelectQuoteContainer ugc baseHtml">
<img src="https://i.imgur.com/c2Rk1Sd.jpg" class="bbCodeImage LbImage" alt="[​IMG]" data-url="https://i.imgur.com/c2Rk1Sd.jpg" style=""><br>
<br>
<div class="bbCodeBlock bbCodeCode">
<div class="type">Code:</div>
<pre>General
Complete name                  : C:\Users\asus\Desktop\Bebe Rexha - Meant to Be (feat. Florida Georgia Line).mp4
Format                         : MPEG-4
Format profile                 : Base Media
Codec ID                       : isom (isom/iso2/avc1/mp41)
File size                      : 213 MiB
Duration                       : 2 min 57 s
Overall bit rate               : 10.1 Mb/s
Frame rate                     : 23.976 FPS
Movie name                     : Meant to Be (feat. Florida Georgia Line)
Performer                      : Bebe Rexha
Genre                          : Pop
ContentType                    : Music Video
Recorded date                  : 2017-10-23 07:00:00 UTC
Writing application            : Lavf57.29.101
Copyright                      : ℗ 2017 Warner Records Inc.

Video
ID                             : 1
Format                         : AVC
Format/Info                    : Advanced Video Codec
Format profile                 : High@L4
Format settings                : CABAC / 4 Ref Frames
Format settings, CABAC         : Yes
Format settings, Reference fra : 4 frames
Codec ID                       : avc1
Codec ID/Info                  : Advanced Video Coding
Duration                       : 2 min 57 s
Bit rate                       : 9 797 kb/s
Width                          : 1 920 pixels
Height                         : 1 080 pixels
Display aspect ratio           : 16:9
Frame rate mode                : Constant
Frame rate                     : 23.976 (24000/1001) FPS
Color space                    : YUV
Chroma subsampling             : 4:2:0
Bit depth                      : 8 bits
Scan type                      : Progressive
Bits/(Pixel*Frame)             : 0.197
Stream size                    : 208 MiB (97%)
Language                       : English
Color range                    : Limited
Color primaries                : BT.709
Transfer characteristics       : BT.709
Matrix coefficients            : BT.709
Codec configuration box        : avcC

Audio
ID                             : 2
Format                         : AAC LC
Format/Info                    : Advanced Audio Codec Low Complexity
Codec ID                       : mp4a-40-2
Duration                       : 2 min 57 s
Bit rate mode                  : Constant
Bit rate                       : 253 kb/s
Channel(s)                     : 2 channels
Channel layout                 : L R
Sampling rate                  : 48.0 kHz
Frame rate                     : 46.875 FPS (1024 SPF)
Compression mode               : Lossy
Stream size                    : 5.37 MiB (3%)
Default                        : Yes
Alternate group                : 1

</pre>
</div>
<div class="bbCodeBlock bbCodeVfcHH HiddenContent">
<div class="attribution type">Hidden Content:</div>
<blockquote>You must either reply or click 'Like' to see the hidden information contained here.</blockquote>
</div>
<div class="messageTextEndMarker">&nbsp;</div>
</blockquote>
</article>]]></description>
                <author><![CDATA[vitalya3]]></author>
                </item>

                </channel></rss>